<svg width="455" height="455" viewBox="0 0 455 455" fill="none" xmlns="http://www.w3.org/2000/svg">
<path d="M272.713 186.425L272.414 172.484C272.411 172.347 272.435 172.211 272.485 172.083C272.535 171.956 272.611 171.84 272.707 171.742C272.802 171.644 272.917 171.566 273.044 171.513C273.17 171.459 273.306 171.432 273.443 171.432L290.043 171.444C290.117 171.444 290.19 171.459 290.258 171.488C290.327 171.516 290.389 171.559 290.441 171.612C290.493 171.665 290.535 171.729 290.563 171.798C290.591 171.868 290.606 171.942 290.606 172.018C290.582 180.778 290.602 189.574 290.665 198.405C290.673 200.238 291.376 201.685 292.772 202.745C296.466 205.575 299.606 208.377 302.191 211.151C303.954 213.032 304.832 212.685 304.824 210.11L304.752 193.862C304.751 193.672 304.787 193.485 304.858 193.309C304.93 193.134 305.035 192.974 305.169 192.84C305.302 192.705 305.461 192.598 305.636 192.525C305.811 192.453 305.999 192.415 306.188 192.415L321.352 192.439C321.658 192.439 321.952 192.56 322.169 192.774C322.386 192.989 322.51 193.281 322.513 193.587C322.601 203.056 322.589 212.334 322.477 221.421C322.453 223.238 322.669 224.808 323.124 226.132C323.188 226.319 323.291 226.49 323.425 226.633C323.559 226.775 323.722 226.886 323.902 226.957C329.383 229.133 334.17 233.317 338.539 237.084C338.661 237.19 338.812 237.259 338.972 237.281C339.133 237.304 339.296 237.28 339.443 237.212C339.59 237.143 339.714 237.034 339.8 236.896C339.886 236.759 339.93 236.6 339.927 236.438L339.796 223.059C339.794 222.942 339.816 222.825 339.86 222.717C339.903 222.608 339.968 222.509 340.051 222.426C340.133 222.342 340.231 222.276 340.34 222.231C340.448 222.185 340.564 222.162 340.681 222.162L355.726 222.09C356.555 222.09 356.958 222.505 356.934 223.334C356.671 231.592 356.699 239.821 357.018 248.023C357.082 249.713 357.864 251.216 359.364 252.531C366.505 258.796 373.909 264.746 381.577 270.382C385.658 273.371 384.15 287.957 383.887 292.644C383.882 292.755 383.851 292.863 383.797 292.96C383.743 293.057 383.666 293.14 383.573 293.202C383.48 293.265 383.374 293.305 383.262 293.32C383.151 293.336 383.037 293.325 382.93 293.29C371.225 289.312 359.679 285.108 348.293 280.676C345.205 279.48 340.466 278.894 336.804 277.543C307.409 266.711 278.063 256.058 248.764 245.584C248.206 245.385 247.926 245.584 247.926 246.182L247.807 327.066C247.807 327.513 247.909 327.955 248.106 328.359C248.303 328.763 248.589 329.118 248.944 329.397L292.281 363.425C293.462 364.349 294.068 365.561 294.1 367.059L294.316 378.92C294.318 379.03 294.295 379.139 294.247 379.239C294.199 379.338 294.129 379.425 294.042 379.492C293.955 379.56 293.853 379.606 293.744 379.627C293.636 379.648 293.524 379.643 293.418 379.613C280.006 375.755 266.856 371.798 253.97 367.741C249.558 366.354 245.246 364.792 241.033 363.054C240.945 363.018 240.851 363.001 240.756 363.004C240.662 363.006 240.569 363.029 240.483 363.069C240.397 363.11 240.321 363.167 240.259 363.239C240.197 363.31 240.151 363.394 240.123 363.484C236.772 374.652 231.865 385.639 227.724 396.543C227.461 397.237 227.145 397.747 226.778 398.074C226.636 398.201 226.466 398.292 226.281 398.339C226.096 398.386 225.903 398.388 225.717 398.345C225.532 398.301 225.359 398.214 225.215 398.09C225.07 397.965 224.958 397.808 224.887 397.631L211.842 364.62C211.686 364.221 211.383 363.896 210.994 363.711C210.605 363.527 210.159 363.497 209.747 363.628L159.827 379.291C159.655 379.344 159.472 379.358 159.294 379.329C159.116 379.3 158.947 379.23 158.8 379.124C158.654 379.018 158.534 378.88 158.451 378.72C158.367 378.56 158.322 378.383 158.319 378.202C158.271 374.488 158.319 370.646 158.463 366.677C158.495 365.816 159.321 364.704 160.94 363.341C167.06 358.192 173.256 353.138 179.527 348.18C187.307 342.047 194.954 335.411 202.722 329.194C203.432 328.62 203.787 327.875 203.787 326.958L203.811 246.254C203.81 246.125 203.778 245.997 203.717 245.883C203.656 245.769 203.568 245.671 203.461 245.599C203.354 245.526 203.231 245.48 203.102 245.465C202.973 245.45 202.843 245.466 202.722 245.513C183.632 252.71 164.77 259.095 145.13 266.854C133.25 271.549 121.221 275.81 109.046 279.636C95.6888 283.844 83.7683 288.555 70.8784 293.218C70.7226 293.275 70.5554 293.294 70.3906 293.274C70.2259 293.253 70.0685 293.194 69.9315 293.1C69.7944 293.007 69.6818 292.882 69.6029 292.736C69.5241 292.59 69.4813 292.427 69.4781 292.261C69.3504 286.666 69.3425 280.887 69.4542 274.925C69.4861 273.211 70.292 271.709 71.8718 270.417C78.2948 265.189 84.7418 259.988 91.2127 254.815C92.7087 253.619 93.5944 252.543 93.6781 250.474C94.0292 241.212 94.0771 232.062 93.8218 223.023C93.817 222.874 93.8418 222.726 93.8947 222.587C93.9476 222.448 94.0275 222.321 94.1299 222.214C94.2323 222.106 94.3552 222.019 94.4913 221.959C94.6274 221.899 94.7741 221.866 94.9228 221.863L110.829 221.564C111.595 221.556 111.974 221.935 111.966 222.7L111.774 238.375C111.774 238.517 111.814 238.656 111.887 238.778C111.961 238.899 112.067 238.997 112.192 239.062C112.318 239.126 112.458 239.155 112.598 239.143C112.738 239.131 112.871 239.081 112.983 238.996L128.602 227.447C128.865 227.255 129.078 227.002 129.224 226.711C129.369 226.42 129.443 226.098 129.44 225.773L129.344 192.822C129.344 192.725 129.363 192.629 129.401 192.54C129.439 192.45 129.495 192.37 129.565 192.302C129.636 192.234 129.719 192.18 129.81 192.144C129.902 192.108 129.999 192.091 130.098 192.092L145.417 192.308C145.583 192.309 145.748 192.344 145.9 192.41C146.053 192.475 146.191 192.571 146.307 192.691C146.423 192.811 146.514 192.953 146.575 193.109C146.636 193.265 146.665 193.431 146.662 193.599L146.315 212.035C146.314 212.182 146.354 212.326 146.428 212.453C146.503 212.579 146.611 212.682 146.739 212.751C146.868 212.821 147.012 212.853 147.157 212.845C147.302 212.836 147.441 212.788 147.56 212.705C151.972 209.668 156.089 206.412 159.911 202.937C160.829 202.108 161.275 200.398 161.252 197.807C161.188 189.183 161.152 180.555 161.144 171.922C161.144 171.821 161.164 171.72 161.202 171.627C161.241 171.533 161.298 171.448 161.369 171.377C161.44 171.306 161.525 171.25 161.618 171.212C161.71 171.174 161.81 171.155 161.91 171.157L179.001 171.312C179.344 171.312 179.511 171.488 179.503 171.839L179.037 187.238C179.031 187.393 179.069 187.547 179.148 187.681C179.227 187.814 179.342 187.923 179.481 187.993C179.619 188.064 179.775 188.093 179.929 188.078C180.084 188.063 180.231 188.004 180.353 187.908L203.416 170.26C203.759 169.997 203.927 169.655 203.919 169.232C203.863 142.57 203.851 115.931 203.883 89.3168C203.899 81.2504 205.945 73.7658 210.023 66.8631C214.247 59.7133 222.099 54.5124 230.381 57.0112C238.603 59.51 244.863 69.5054 246.957 77.7672C247.699 80.6765 248.062 85.4072 248.046 91.9592C247.974 117.705 247.946 143.435 247.962 169.148C247.962 169.563 248.06 169.972 248.25 170.342C248.439 170.712 248.714 171.033 249.051 171.277L271.277 187.178C272.258 187.88 272.737 187.629 272.713 186.425Z" fill="white"/>
<path fill-rule="evenodd" clip-rule="evenodd" d="M209.376 0.0759582C97.8081 8.78931 8.78931 97.8081 0.0759582 209.376H33.1956C41.7375 116.045 116.045 41.7375 209.376 33.1956V0.0759582ZM421.556 209.376C412.984 115.712 338.175 41.2073 244.376 33.1066V5.53571e-05C356.411 8.2579 445.936 97.475 454.676 209.376H421.556ZM244.376 421.645C338.509 413.516 413.516 338.509 421.645 244.376H454.752C446.469 356.745 356.745 446.469 244.376 454.752V421.645ZM33.1066 244.376C41.2073 338.175 115.712 412.984 209.376 421.556V454.676C97.475 445.936 8.2579 356.411 5.53571e-05 244.376H33.1066Z" fill="white"/>
</svg>
