<svg width="456" height="456" viewBox="0 0 456 456" fill="none" xmlns="http://www.w3.org/2000/svg">
<path d="M273.337 187.049L273.038 173.108C273.035 172.971 273.059 172.835 273.109 172.707C273.159 172.58 273.235 172.464 273.331 172.366C273.427 172.268 273.541 172.19 273.668 172.137C273.794 172.083 273.93 172.056 274.067 172.056L290.667 172.068C290.741 172.068 290.814 172.083 290.882 172.112C290.951 172.141 291.013 172.183 291.065 172.236C291.117 172.289 291.159 172.353 291.187 172.422C291.215 172.492 291.23 172.567 291.23 172.642C291.206 181.402 291.226 190.198 291.29 199.029C291.297 200.863 292 202.309 293.396 203.369C297.09 206.199 300.23 209.001 302.815 211.775C304.578 213.656 305.456 213.309 305.448 210.734L305.376 194.486C305.375 194.297 305.411 194.109 305.482 193.933C305.554 193.758 305.659 193.598 305.793 193.464C305.926 193.329 306.085 193.222 306.26 193.15C306.435 193.077 306.623 193.039 306.812 193.039L321.976 193.063C322.282 193.063 322.576 193.184 322.793 193.399C323.01 193.614 323.134 193.905 323.137 194.211C323.225 203.68 323.213 212.958 323.101 222.045C323.077 223.862 323.293 225.433 323.748 226.756C323.812 226.943 323.915 227.114 324.049 227.257C324.183 227.399 324.346 227.51 324.526 227.581C330.007 229.757 334.795 233.941 339.163 237.708C339.285 237.814 339.436 237.883 339.596 237.906C339.757 237.928 339.92 237.904 340.067 237.836C340.214 237.767 340.338 237.658 340.424 237.521C340.51 237.383 340.554 237.224 340.551 237.062L340.42 223.683C340.418 223.566 340.44 223.449 340.484 223.341C340.527 223.232 340.592 223.133 340.675 223.05C340.757 222.966 340.855 222.9 340.964 222.855C341.072 222.81 341.188 222.786 341.305 222.786L356.35 222.715C357.179 222.715 357.582 223.129 357.558 223.958C357.295 232.216 357.323 240.446 357.642 248.648C357.706 250.337 358.488 251.84 359.988 253.155C367.129 259.42 374.533 265.37 382.201 271.006C386.282 273.995 384.774 288.581 384.511 293.268C384.506 293.379 384.476 293.487 384.421 293.584C384.367 293.681 384.29 293.764 384.197 293.826C384.104 293.889 383.998 293.929 383.886 293.944C383.775 293.96 383.661 293.949 383.554 293.914C371.849 289.936 360.303 285.732 348.917 281.3C345.829 280.104 341.09 279.518 337.428 278.167C308.033 267.335 278.687 256.682 249.388 246.209C248.83 246.009 248.55 246.209 248.55 246.806L248.431 327.69C248.431 328.137 248.533 328.579 248.73 328.983C248.927 329.387 249.213 329.742 249.568 330.021L292.905 364.049C294.086 364.973 294.693 366.185 294.724 367.683L294.94 379.544C294.942 379.654 294.919 379.763 294.871 379.863C294.823 379.962 294.753 380.049 294.666 380.117C294.579 380.184 294.477 380.23 294.368 380.251C294.26 380.272 294.148 380.267 294.042 380.237C280.63 376.38 267.48 372.422 254.594 368.365C250.182 366.978 245.87 365.416 241.657 363.678C241.569 363.642 241.475 363.625 241.38 363.628C241.286 363.631 241.193 363.653 241.107 363.693C241.021 363.734 240.945 363.792 240.883 363.863C240.821 363.935 240.775 364.018 240.747 364.109C237.396 375.276 232.489 386.263 228.348 397.167C228.085 397.861 227.769 398.371 227.402 398.698C227.26 398.825 227.09 398.916 226.905 398.963C226.72 399.01 226.527 399.012 226.342 398.969C226.156 398.925 225.984 398.838 225.839 398.714C225.694 398.589 225.582 398.432 225.511 398.255L212.466 365.244C212.31 364.845 212.007 364.52 211.618 364.336C211.229 364.151 210.783 364.121 210.371 364.252L160.451 379.915C160.279 379.969 160.096 379.982 159.918 379.953C159.74 379.924 159.571 379.854 159.424 379.748C159.278 379.643 159.158 379.504 159.075 379.344C158.991 379.184 158.946 379.007 158.943 378.827C158.895 375.112 158.943 371.27 159.087 367.301C159.119 366.44 159.945 365.328 161.564 363.965C167.684 358.816 173.88 353.762 180.151 348.805C187.931 342.671 195.578 336.035 203.346 329.818C204.056 329.244 204.411 328.499 204.411 327.582L204.435 246.878C204.434 246.749 204.402 246.621 204.341 246.507C204.28 246.393 204.192 246.296 204.085 246.223C203.978 246.15 203.855 246.104 203.726 246.089C203.597 246.074 203.467 246.09 203.346 246.137C184.256 253.334 165.394 259.719 145.754 267.479C133.874 272.173 121.845 276.434 109.67 280.26C96.3129 284.468 84.3924 289.179 71.5024 293.842C71.3466 293.899 71.1794 293.918 71.0147 293.898C70.8499 293.877 70.6925 293.818 70.5555 293.724C70.4185 293.631 70.3058 293.506 70.227 293.36C70.1481 293.214 70.1053 293.051 70.1021 292.886C69.9745 287.29 69.9665 281.511 70.0782 275.549C70.1101 273.835 70.916 272.333 72.4958 271.042C78.9188 265.813 85.3658 260.612 91.8367 255.439C93.3327 254.243 94.2184 253.167 94.3022 251.099C94.6532 241.837 94.7011 232.686 94.4458 223.647C94.441 223.499 94.4658 223.351 94.5187 223.212C94.5716 223.073 94.6515 222.946 94.754 222.838C94.8564 222.73 94.9792 222.643 95.1153 222.583C95.2514 222.523 95.3981 222.49 95.5469 222.487L111.453 222.188C112.219 222.181 112.598 222.559 112.59 223.324L112.398 238.999C112.398 239.141 112.438 239.28 112.511 239.402C112.585 239.523 112.691 239.621 112.816 239.686C112.942 239.751 113.082 239.779 113.222 239.767C113.362 239.756 113.495 239.705 113.607 239.621L129.226 228.071C129.489 227.879 129.702 227.627 129.848 227.335C129.993 227.044 130.067 226.723 130.064 226.397L129.968 193.446C129.968 193.349 129.987 193.253 130.025 193.164C130.063 193.075 130.119 192.994 130.189 192.926C130.26 192.858 130.343 192.804 130.434 192.769C130.526 192.733 130.623 192.715 130.722 192.716L146.041 192.932C146.207 192.933 146.372 192.968 146.524 193.034C146.677 193.1 146.815 193.195 146.931 193.315C147.047 193.436 147.138 193.578 147.199 193.733C147.26 193.889 147.289 194.055 147.286 194.223L146.939 212.659C146.938 212.806 146.978 212.951 147.052 213.077C147.127 213.203 147.235 213.306 147.363 213.376C147.492 213.445 147.636 213.477 147.781 213.469C147.926 213.46 148.065 213.412 148.184 213.329C152.596 210.292 156.713 207.036 160.535 203.561C161.453 202.732 161.899 201.022 161.876 198.432C161.812 189.807 161.776 181.179 161.768 172.546C161.768 172.445 161.788 172.344 161.826 172.251C161.865 172.157 161.922 172.072 161.993 172.001C162.064 171.93 162.149 171.874 162.242 171.836C162.334 171.798 162.434 171.78 162.534 171.781L179.625 171.937C179.968 171.937 180.135 172.112 180.127 172.463L179.661 187.862C179.655 188.017 179.693 188.171 179.772 188.305C179.851 188.438 179.966 188.547 180.105 188.617C180.243 188.688 180.399 188.717 180.553 188.702C180.708 188.687 180.855 188.628 180.977 188.532L204.04 170.884C204.383 170.621 204.551 170.279 204.543 169.856C204.487 143.194 204.475 116.555 204.507 89.941C204.523 81.8745 206.569 74.39 210.647 67.4873C214.871 60.3374 222.723 55.1365 231.005 57.6353C239.227 60.1342 245.487 70.1296 247.581 78.3913C248.323 81.3006 248.686 86.0313 248.67 92.5833C248.598 118.329 248.57 144.059 248.586 169.773C248.586 170.187 248.684 170.597 248.874 170.966C249.063 171.336 249.338 171.657 249.675 171.901L271.901 187.802C272.882 188.504 273.361 188.253 273.337 187.049Z" fill="#345AFA"/>
<path fill-rule="evenodd" clip-rule="evenodd" d="M210 0.700048C98.4322 9.4134 9.4134 98.4322 0.700048 210H33.8197C42.3616 116.67 116.67 42.3616 210 33.8197V0.700048ZM422.18 210C413.608 116.336 338.799 41.8314 245 33.7307V0.624146C357.035 8.88199 446.56 98.0991 455.3 210H422.18ZM245 422.269C339.133 414.14 414.14 339.133 422.269 245H455.376C447.093 357.369 357.369 447.093 245 455.376V422.269ZM33.7307 245C41.8314 338.799 116.336 413.608 210 422.18V455.3C98.0991 446.56 8.88199 357.035 0.624146 245H33.7307Z" fill="#345AFA"/>
</svg>
